<svg xmlns="http://www.w3.org/2000/svg" version="1.0" width="64.000000pt" height="64.000000pt" viewBox="0 0 64.000000 64.000000" preserveAspectRatio="xMidYMid meet">
	<g transform="translate(0.000000,64.000000) scale(0.100000,-0.100000)" fill="#000000" stroke="none">
		<path d="M108 355 c-38 -62 -68 -118 -68 -124 0 -30 22 -15 50 34 17 30 35 55 40 55 5 0 28 -31 50 -70 22 -38 47 -70 54 -70 8 0 32 31 55 70 23 39 46 70 50 70 5 0 28 -32 51 -71 28 -47 47 -69 58 -67 17 3 153 218 146 230 -10 17 -23 6 -53 -42 -17 -27 -34 -50 -38 -50 -5 0 -29 34 -55 75 -26 41 -52 75 -57 75 -5 0 -28 -34 -52 -75 -49 -86 -49 -86 -106 11 -20 35 -42 64 -48 64 -5 0 -40 -52 -77 -115z"/>
	</g>
</svg>